<?xml version="1.0" standalone="no"?>
<!DOCTYPE svg PUBLIC "-//W3C//DTD SVG 20010904//EN"
 "http://www.w3.org/TR/2001/REC-SVG-20010904/DTD/svg10.dtd">
<svg version="1.0" xmlns="http://www.w3.org/2000/svg"
 width="453.000000pt" height="453.000000pt" viewBox="0 0 453.000000 453.000000"
 preserveAspectRatio="xMidYMid meet">
<metadata>
Created by potrace 1.11, written by Peter Selinger 2001-2013
</metadata>
<g transform="translate(0.000000,453.000000) scale(0.100000,-0.100000)"
fill="#000000" stroke="none">
<path d="M3493 3263 c-42 -43 -43 -44 -43 -73 0 -11 -9 -28 -21 -38 -11 -9
-33 -27 -47 -39 -15 -13 -30 -23 -35 -23 -4 0 -25 -28 -47 -62 -22 -35 -43
-67 -47 -73 -5 -5 -24 -30 -43 -55 -19 -25 -39 -50 -45 -57 -5 -6 -21 -30 -35
-52 -13 -23 -30 -41 -37 -41 -7 0 -13 -3 -13 -8 0 -4 -12 -13 -27 -19 -16 -7
-44 -26 -63 -43 -19 -16 -40 -30 -47 -30 -6 0 -13 -3 -15 -7 -1 -5 -23 -18
-48 -29 -25 -12 -76 -36 -115 -55 -38 -18 -73 -32 -77 -31 -5 1 -8 -1 -8 -6 0
-13 -51 -29 -180 -58 -71 -16 -112 -16 -153 0 -49 19 -94 58 -108 94 -12 31
-3 120 17 176 8 22 16 52 17 66 2 22 -2 25 -37 28 -22 2 -51 -2 -65 -9 -23
-12 -80 -66 -82 -79 -15 -91 -10 -181 13 -225 6 -11 10 -20 8 -20 -2 0 6 -18
18 -40 29 -58 73 -97 131 -120 55 -21 60 -31 37 -86 -7 -19 -14 -64 -14 -101
-1 -67 -24 -173 -45 -213 -5 -11 -26 -39 -46 -63 -32 -38 -36 -48 -32 -90 4
-52 4 -78 2 -204 l-1 -88 -97 0 c-62 1 -104 5 -113 13 -16 12 -50 77 -55 106
-2 9 -4 16 -5 16 -2 0 -7 19 -16 57 -5 23 0 33 25 57 16 15 46 36 64 45 20 9
56 44 83 80 27 36 54 63 61 61 16 -5 47 24 60 55 13 33 17 130 6 130 -5 0 -8
29 -7 64 3 89 -7 100 -48 55 -38 -43 -135 -82 -162 -67 -28 16 -61 6 -62 -19
-1 -13 -2 -28 -3 -34 -1 -12 -59 -3 -78 13 -7 6 -13 8 -13 5 0 -3 -14 -1 -32
4 -55 15 -151 12 -216 -7 -34 -10 -62 -22 -62 -26 0 -4 -9 -8 -20 -8 -11 0
-20 -4 -20 -8 0 -10 -65 -42 -84 -42 -7 0 -31 18 -53 40 -54 52 -63 98 -34
173 6 15 9 27 6 27 -2 0 11 30 30 67 19 38 30 72 26 76 -28 28 -80 -40 -116
-150 -23 -73 -25 -111 -7 -158 16 -40 25 -52 95 -129 26 -29 37 -50 37 -72 0
-17 7 -37 15 -44 17 -14 20 -41 6 -55 -6 -6 -12 -31 -13 -57 -2 -26 -12 -55
-21 -66 -20 -22 -22 -49 -4 -55 18 -6 65 31 69 55 9 59 50 9 50 -61 0 -31 22
-68 37 -65 3 1 13 19 22 39 16 36 16 38 -8 80 -16 29 -20 46 -13 50 6 4 14 5
17 2 3 -4 41 12 85 34 70 36 82 40 107 30 40 -17 83 -101 51 -101 -5 0 -14 -9
-20 -20 -8 -15 -6 -24 10 -40 11 -11 30 -20 43 -20 18 0 28 -12 50 -60 15 -33
28 -63 27 -67 0 -4 -21 -8 -47 -9 -194 -8 -356 -16 -403 -19 -254 -18 -397
-30 -470 -40 -43 -7 -144 -18 -175 -20 -16 -1 -46 -5 -65 -8 -19 -4 -53 -9
-75 -11 -37 -4 -182 -29 -233 -41 -12 -3 -32 -7 -45 -10 -67 -14 -195 -48
-212 -56 -11 -5 -32 -10 -47 -11 -15 -1 -30 -8 -33 -16 -3 -7 -9 -10 -15 -7
-5 3 -10 1 -10 -5 0 -7 6 -10 14 -7 17 7 247 54 296 61 19 3 51 8 70 10 19 3
55 8 80 11 25 3 61 9 80 12 19 3 53 6 75 7 22 2 56 6 75 9 36 6 106 13 220 22
36 3 85 7 110 10 61 6 199 15 290 20 41 2 140 7 220 12 187 9 1155 10 1370 0
277 -13 322 -16 415 -22 50 -3 101 -7 115 -9 14 -2 66 -7 115 -10 88 -6 140
-11 220 -22 22 -3 65 -8 95 -10 30 -3 66 -7 80 -10 25 -5 59 -10 140 -19 25
-3 52 -8 60 -10 8 -2 33 -6 55 -10 22 -3 74 -13 115 -21 41 -9 84 -17 95 -19
11 -1 34 -5 50 -9 22 -5 20 -3 -10 9 -22 9 -48 21 -57 26 -16 8 -41 15 -138
39 -79 19 -228 50 -270 56 -25 3 -54 8 -65 10 -65 13 -205 33 -274 39 -35 3
-73 7 -85 10 -11 2 -58 7 -103 10 -122 9 -152 17 -124 34 9 6 2 19 -28 52 -76
81 -86 114 -86 274 1 132 12 301 22 318 9 16 15 12 109 -70 12 -10 36 -29 54
-43 18 -14 39 -31 46 -37 7 -7 15 -13 19 -13 3 0 21 -14 40 -31 33 -31 34 -32
17 -58 -9 -14 -19 -28 -22 -31 -3 -3 -17 -19 -32 -37 -24 -29 -25 -36 -16 -72
12 -47 42 -83 63 -75 8 4 13 10 10 14 -3 5 -1 11 4 14 5 3 21 29 36 57 14 28
31 56 36 63 42 49 50 63 55 83 8 29 -20 71 -106 163 -67 71 -109 139 -114 182
-2 15 7 49 20 76 34 71 39 113 30 237 -2 22 3 62 11 90 7 27 16 64 19 80 8 44
17 48 70 30 29 -10 62 -14 80 -10 34 6 94 59 94 83 0 8 -25 39 -55 69 -41 40
-55 62 -55 83 0 15 -15 50 -35 79 -38 55 -41 70 -23 104 6 12 12 32 14 45 2
20 0 21 -14 10 -9 -7 -25 -23 -36 -36 -10 -13 -21 -20 -24 -17 -4 3 -7 35 -7
71 -1 87 -14 97 -62 47z m-429 -1143 c5 -5 11 -15 13 -22 1 -7 9 -39 17 -71
13 -53 18 -84 31 -182 2 -16 6 -51 10 -77 3 -26 2 -55 -3 -65 -9 -18 9 -79 20
-68 5 5 22 -51 33 -111 2 -11 4 -19 5 -19 1 0 3 -10 6 -23 l4 -22 -113 6
c-201 10 -318 14 -551 19 -252 5 -249 4 -281 71 -28 59 -23 123 14 188 26 45
38 56 54 54 20 -3 22 -10 23 -98 2 -52 3 -109 3 -126 1 -22 8 -34 26 -44 38
-20 97 -19 120 3 20 18 20 19 -7 41 -67 58 -80 154 -32 231 16 25 32 45 35 45
3 0 19 12 35 28 16 15 46 40 66 56 23 17 50 53 69 93 36 72 32 68 102 94 44
16 71 18 171 14 66 -3 124 -9 130 -15z"/>
<path d="M1150 1991 c0 -5 -12 -11 -27 -13 -25 -3 -28 -8 -31 -42 -2 -27 3
-47 17 -66 11 -15 17 -30 14 -34 -19 -18 -164 9 -210 40 -28 18 -62 26 -113
28 -41 2 -100 -14 -100 -26 0 -4 -5 -8 -11 -8 -7 0 -9 10 -7 25 7 34 -13 48
-40 29 -28 -19 -28 -56 -2 -99 19 -31 19 -33 3 -41 -10 -4 -31 -8 -48 -8 -21
-1 -31 -7 -34 -21 -2 -11 -19 -33 -37 -49 -38 -32 -42 -47 -18 -67 13 -11 21
-6 53 31 23 27 42 41 49 36 16 -10 15 -31 -3 -46 -17 -14 -20 -56 -4 -65 12
-8 49 23 49 42 0 7 8 21 19 32 15 15 26 17 57 10 80 -16 184 -50 217 -68 65
-36 74 -44 92 -77 17 -33 53 -48 77 -33 10 7 10 11 0 21 -19 19 -14 25 16 20
36 -5 65 24 36 35 -11 4 -27 14 -36 23 -17 15 -15 18 27 54 25 20 53 36 63 35
48 -4 71 2 77 22 9 27 -27 101 -59 123 -21 13 -26 25 -26 56 0 45 -28 110 -47
110 -7 0 -13 -4 -13 -9z"/>
</g>
</svg>
